<svg xmlns="http://www.w3.org/2000/svg" xmlns:xlink="http://www.w3.org/1999/xlink" version="1.1" id="Your_Icon" x="0px" y="0px" width="100px" height="100px" viewBox="0 0 100 100" enable-background="new 0 0 100 100" xml:space="preserve">
<g>
	<g>
		<g>
		</g>
	</g>
	<g>
	</g>
</g>
<path d="M47.13,45.52v0.04h1.49v-0.04H47.13z M47.13,45.52v0.04h1.49v-0.04H47.13z M50,94.4c-0.23,0.09-0.48,0.14-0.75,0.14h1.5  C50.48,94.54,50.23,94.49,50,94.4z"/>
<path d="M83.9,33.35H68.8c2.91-1.79,5.33-4.34,6.61-7.93c1.72-4.82,0.73-10.64-2.51-14.84c-2.8-3.61-6.92-5.46-11.3-5.07  C54.92,6.1,51.61,10.3,50,15.55C48.39,10.3,45.08,6.1,38.4,5.51c-4.39-0.39-8.5,1.46-11.3,5.07c-3.24,4.2-4.23,10.02-2.51,14.84  c1.28,3.59,3.71,6.14,6.61,7.93H16.1c-1.83,0-3.32,1.48-3.32,3.31v9.79c0,1.83,1.49,3.31,3.32,3.31h1.16v40.53  c0,2.34,1.91,4.25,4.26,4.25h27.73c0.27,0,0.52-0.05,0.75-0.14c0.23,0.09,0.48,0.14,0.75,0.14h27.73c2.35,0,4.26-1.91,4.26-4.25  V49.76h1.16c1.83,0,3.32-1.48,3.32-3.31v-9.79C87.22,34.83,85.73,33.35,83.9,33.35z M47.13,90.29H21.51l0.01-40.48h25.61V90.29z   M47.13,45.52h-30.1v-7.93h30.1V45.52z M47.18,32.2c-0.01,0.38-0.02,0.74-0.03,1.1c-5.89-0.27-15.9-1.85-18.56-9.31  c-1.23-3.43-0.47-7.78,1.87-10.81c1.04-1.34,3.25-3.48,6.77-3.48c0.25,0,0.52,0.02,0.8,0.04C46.89,10.53,47.41,20.82,47.18,32.2z   M52.82,32.2c-0.23-11.38,0.29-21.67,9.15-22.46c0.28-0.02,0.54-0.04,0.8-0.04c3.52,0,5.73,2.14,6.77,3.48  c2.34,3.03,3.1,7.38,1.87,10.81c-2.66,7.46-12.67,9.04-18.56,9.31C52.84,32.94,52.83,32.58,52.82,32.2z M78.48,90.3H52.87V49.82  h25.62L78.48,90.3z M82.97,45.52h-30.1v-7.93h30.1V45.52z"/>
</svg>