<svg xmlns="http://www.w3.org/2000/svg" xmlns:xlink="http://www.w3.org/1999/xlink" version="1.1" id="Layer_1" x="0px" y="0px" width="100px" height="100px" viewBox="0 0 100 100" enable-background="new 0 0 100 100" xml:space="preserve">
<g>
	<path fill="none" d="M50.43,10.187c-22.378,0-40.584,18.206-40.584,40.584c0,22.378,18.206,40.584,40.584,40.584   c22.379,0,40.585-18.206,40.585-40.584C91.015,28.393,72.809,10.187,50.43,10.187z M63.922,24.618c4.268,0,7.725,5.372,7.725,12   c0,6.627-3.457,12-7.725,12s-7.726-5.373-7.726-12C56.196,29.99,59.654,24.618,63.922,24.618z M36.938,24.618   c4.268,0,7.725,5.372,7.725,12c0,6.627-3.458,12-7.725,12c-4.266,0-7.725-5.373-7.725-12C29.213,29.99,32.672,24.618,36.938,24.618   z M74.068,65.007c-4.911,8.004-13.917,12.976-23.502,12.976c-9.836,0-18.959-5.169-23.809-13.489   c-0.834-1.432-0.35-3.269,1.081-4.103c1.432-0.836,3.269-0.35,4.103,1.081c3.779,6.483,10.916,10.511,18.625,10.511   c7.514,0,14.56-3.875,18.389-10.114c0.867-1.412,2.716-1.854,4.126-0.987C74.493,61.747,74.936,63.595,74.068,65.007z"/>
	<path d="M50.43,4.187c-25.687,0-46.584,20.898-46.584,46.584S24.743,97.355,50.43,97.355c25.688,0,46.585-20.897,46.585-46.584   S76.117,4.187,50.43,4.187z M50.43,91.355c-22.378,0-40.584-18.206-40.584-40.584c0-22.378,18.206-40.584,40.584-40.584   c22.379,0,40.585,18.206,40.585,40.584C91.015,73.149,72.809,91.355,50.43,91.355z"/>
	<ellipse cx="36.938" cy="36.618" rx="7.725" ry="12"/>
	<ellipse cx="63.922" cy="36.618" rx="7.725" ry="12"/>
	<path d="M73.081,60.881c-1.41-0.867-3.259-0.425-4.126,0.987c-3.829,6.239-10.875,10.114-18.389,10.114   c-7.709,0-14.846-4.027-18.625-10.511c-0.834-1.431-2.671-1.917-4.103-1.081c-1.431,0.834-1.916,2.671-1.081,4.103   c4.849,8.32,13.972,13.489,23.809,13.489c9.585,0,18.591-4.972,23.502-12.976C74.936,63.595,74.493,61.747,73.081,60.881z"/>
</g>
</svg>